<svg width="324" height="252" viewBox="0 0 324 252" fill="none" xmlns="http://www.w3.org/2000/svg">
<g clip-path="url(#clip0_2_103)">
<path d="M67.2623 165.757C52.6137 151.345 46.4268 136.31 49.8409 123.422C54.2222 106.883 73.6861 95.4469 103.242 92.0474L103.351 92.9961C74.2067 96.3481 55.0397 107.527 50.7645 123.666C47.4419 136.209 53.539 150.915 67.9326 165.076L67.2623 165.757Z" fill="#F0F0F0"/>
<path d="M208.596 216.914C190.314 216.914 170.447 214.198 150.713 208.977C126.31 202.521 103.935 192.775 86.0071 180.794L86.538 180.001C104.38 191.924 126.656 201.625 150.958 208.054C172.92 213.865 195.046 216.557 214.937 215.847L214.971 216.801C212.87 216.876 210.746 216.914 208.596 216.914Z" fill="#F0F0F0"/>
<path d="M250.538 210.909L250.232 210.005C266.583 204.48 276.81 195.58 279.808 184.266C283.617 169.883 275.34 153.193 256.501 137.27C237.566 121.265 210.26 107.986 179.614 99.878L179.859 98.9549C210.639 107.099 238.077 120.447 257.118 136.541C276.255 152.715 284.641 169.751 280.731 184.51C277.648 196.148 267.208 205.277 250.538 210.909Z" fill="#F0F0F0"/>
<path d="M100.398 217.313C64.4738 201.39 36.7919 180.732 22.4514 159.144L23.2473 158.616C37.4886 180.054 65.0252 200.59 100.785 216.44L100.398 217.313Z" fill="#F0F0F0"/>
<path d="M226.702 244.898C222.997 244.898 219.228 244.815 215.396 244.649L215.438 243.696C244.034 244.933 269.265 241.513 288.408 233.803L288.766 234.689C272.067 241.414 250.782 244.898 226.702 244.898Z" fill="#F0F0F0"/>
<path d="M205.859 92.9036C199.921 90.9716 193.814 89.1727 187.707 87.5569C152.561 78.2584 118.013 74.9569 87.7957 78.0113L87.6996 77.0612C118.03 73.9968 152.696 77.3062 187.951 86.6338C194.076 88.2543 200.2 90.0583 206.155 91.9958L205.859 92.9036Z" fill="#F0F0F0"/>
<path d="M44.8109 167.189C30.1623 152.777 23.9754 137.742 27.3894 124.854C31.7707 108.315 51.2347 96.8791 80.7906 93.4796L80.8997 94.4283C51.7553 97.7803 32.5883 108.959 28.3131 125.098C24.9905 137.641 31.0876 152.348 45.4812 166.509L44.8109 167.189Z" fill="#F0F0F0"/>
<path d="M186.145 218.346C167.863 218.346 147.996 215.631 128.262 210.409C103.859 203.953 81.4838 194.208 63.5557 182.227L64.0866 181.433C81.9283 193.356 104.204 203.057 128.507 209.486C150.468 215.297 172.594 217.99 192.485 217.279L192.52 218.233C190.419 218.308 188.294 218.346 186.145 218.346Z" fill="#F0F0F0"/>
<path d="M228.087 212.341L227.781 211.437C244.132 205.912 254.359 197.012 257.356 185.698C261.166 171.315 252.889 154.625 234.05 138.702C215.114 122.698 187.809 109.418 157.163 101.31L157.407 100.387C188.187 108.531 215.626 121.879 234.666 137.973C253.803 154.147 262.19 171.183 258.28 185.942C255.197 197.581 244.756 206.709 228.087 212.341Z" fill="#F0F0F0"/>
<path d="M77.9461 218.745C42.0224 202.822 14.3405 182.164 0 160.576L0.795843 160.048C15.0372 181.486 42.5738 202.022 78.3333 217.872L77.9461 218.745Z" fill="#F0F0F0"/>
<path d="M204.251 246.33C200.546 246.33 196.777 246.247 192.945 246.082L192.986 245.128C221.583 246.365 246.814 242.945 265.957 235.235L266.314 236.121C249.615 242.846 228.331 246.33 204.251 246.33Z" fill="#F0F0F0"/>
<path d="M183.408 94.3358C177.47 92.4038 171.363 90.6049 165.255 88.9891C130.11 79.6906 95.5618 76.3891 65.3442 79.4435L65.2482 78.4934C95.5784 75.429 130.245 78.7384 165.5 88.066C171.624 89.6865 177.749 91.4905 183.703 93.428L183.408 94.3358Z" fill="#F0F0F0"/>
<path d="M16.2839 141.615C23.1494 133.923 34.101 129.234 44.0256 132.041C34.8698 138.516 28.3008 148.019 25.4811 158.869C24.4088 163.057 23.6525 167.827 20.1673 170.388C17.9987 171.981 15.1252 172.362 12.4583 171.999C9.7912 171.636 7.26942 170.6 4.78167 169.573L4.11224 169.631C6.0369 159.503 9.41844 149.308 16.2839 141.615Z" fill="#F2F2F2"/>
<path d="M43.9953 132.255C35.6976 134.263 28.244 138.832 22.693 145.315C21.4732 146.689 20.4778 148.247 19.7434 149.931C19.0811 151.595 18.8766 153.405 19.1512 155.175C19.3741 156.829 19.7939 158.496 19.6104 160.177C19.5037 161.035 19.2165 161.862 18.7678 162.602C18.3191 163.342 17.719 163.978 17.0067 164.47C15.2639 165.742 13.1678 166.312 11.0985 166.799C8.80101 167.339 6.40606 167.863 4.53322 169.389C4.3063 169.574 4.03251 169.211 4.25909 169.027C7.5175 166.372 12.046 166.713 15.6511 164.785C17.3333 163.885 18.7544 162.473 19.0999 160.535C19.402 158.841 18.9706 157.122 18.7305 155.448C18.4372 153.726 18.5704 151.959 19.1183 150.3C19.7645 148.584 20.6982 146.99 21.8794 145.587C24.4883 142.386 27.5845 139.615 31.0547 137.376C35.001 134.797 39.3595 132.913 43.9416 131.804C44.2253 131.735 44.2771 132.187 43.9953 132.255Z" fill="white"/>
<path d="M24.3574 143.122C23.3956 142.044 22.8486 140.659 22.8142 139.215C22.7798 137.77 23.2602 136.361 24.1697 135.238C24.3545 135.012 24.7155 135.288 24.5304 135.515C23.6816 136.559 23.2342 137.872 23.269 139.217C23.3038 140.561 23.8184 141.849 24.7201 142.848C24.9157 143.066 24.552 143.338 24.3574 143.122Z" fill="white"/>
<path d="M18.9276 154.35C21.8761 154.546 24.79 153.624 27.0884 151.768C27.3159 151.584 27.5898 151.947 27.3625 152.13C24.9672 154.057 21.9328 155.011 18.865 154.8C18.5726 154.78 18.6368 154.33 18.9276 154.35Z" fill="white"/>
<path d="M35.1032 135.391C35.3883 135.886 35.792 136.302 36.2779 136.602C36.7638 136.903 37.3167 137.078 37.887 137.112C38.1795 137.128 38.115 137.578 37.8244 137.562C37.1945 137.521 36.5841 137.327 36.0465 136.997C35.5089 136.666 35.0605 136.209 34.7405 135.665C34.7061 135.616 34.6915 135.556 34.6997 135.497C34.7079 135.438 34.7383 135.384 34.7848 135.347C34.833 135.311 34.8935 135.295 34.9531 135.304C35.0127 135.312 35.0666 135.343 35.1032 135.391Z" fill="white"/>
<path d="M58.1138 163.976C57.9308 163.971 57.7479 163.966 57.5626 163.963C55.1028 163.907 52.6424 164.051 50.2059 164.392C50.0171 164.416 49.8261 164.442 49.6383 164.471C43.7769 165.357 38.131 167.323 32.9876 170.269C30.942 171.443 28.9888 172.771 27.1448 174.242C24.5984 176.272 21.999 178.677 19.0177 179.717C18.7079 179.829 18.3914 179.922 18.0701 179.995L4.2349 170.442C4.21436 170.405 4.1915 170.37 4.1708 170.333L3.60095 169.976C3.69075 169.894 3.78567 169.81 3.87547 169.728C3.92736 169.68 3.98235 169.634 4.03423 169.586C4.0698 169.555 4.10554 169.523 4.13585 169.493C4.14765 169.482 4.1596 169.472 4.16924 169.465C4.19954 169.434 4.23091 169.409 4.25904 169.382C4.78828 168.913 5.32175 168.448 5.85943 167.985C5.86161 167.981 5.86161 167.981 5.86688 167.98C9.97275 164.463 14.4085 161.258 19.1901 158.827C19.334 158.754 19.4799 158.677 19.6301 158.609C21.7915 157.525 24.0379 156.62 26.3469 155.902C27.6125 155.513 28.897 155.188 30.1955 154.928C33.5518 154.265 36.9916 154.133 40.3889 154.538C47.1612 155.346 53.5996 158.31 57.797 163.571C57.9043 163.705 58.0087 163.838 58.1138 163.976Z" fill="#F2F2F2"/>
<path d="M57.9613 164.13C50.1265 160.74 41.4223 159.904 33.0848 161.74C31.283 162.103 29.5496 162.748 27.9487 163.651C26.4177 164.581 25.1637 165.903 24.317 167.481C23.498 168.937 22.829 170.52 21.6702 171.751C21.0678 172.373 20.3406 172.86 19.5366 173.181C18.7325 173.501 17.8697 173.649 17.0046 173.613C14.8469 173.58 12.8297 172.774 10.8845 171.917C8.72478 170.966 6.49652 169.944 4.0819 170.035C3.78933 170.046 3.78923 169.592 4.08135 169.581C8.28239 169.422 11.6928 172.419 15.733 173.048C17.6182 173.342 19.6034 173.07 21.0464 171.731C22.3083 170.56 22.9997 168.927 23.8162 167.447C24.6195 165.895 25.7907 164.564 27.2275 163.569C28.7773 162.588 30.4829 161.877 32.2712 161.468C36.2826 160.482 40.4241 160.132 44.5441 160.432C49.2482 160.748 53.8635 161.866 58.1903 163.737C58.4581 163.853 58.2274 164.245 57.9613 164.13Z" fill="white"/>
<path d="M35.7346 160.991C35.6163 159.551 36.014 158.116 36.8566 156.942C37.6992 155.768 38.9319 154.932 40.3345 154.583C40.6185 154.513 40.7403 154.951 40.4558 155.021C39.1491 155.344 38.001 156.123 37.2186 157.217C36.4362 158.312 36.0711 159.65 36.1892 160.99C36.2145 161.282 35.7598 161.28 35.7346 160.991Z" fill="white"/>
<path d="M24.635 166.689C26.8713 168.619 29.7534 169.636 32.7067 169.537C32.9993 169.527 32.9995 169.981 32.7072 169.991C29.6338 170.089 26.6366 169.024 24.3139 167.01C24.0927 166.818 24.415 166.498 24.635 166.689Z" fill="white"/>
<path d="M48.9721 161.284C48.9017 161.85 48.9733 162.425 49.1803 162.958C49.3874 163.49 49.7234 163.962 50.1583 164.332C50.3819 164.522 50.0594 164.842 49.8372 164.654C49.3587 164.243 48.9882 163.72 48.7581 163.133C48.5281 162.546 48.4455 161.911 48.5175 161.284C48.5194 161.224 48.5439 161.168 48.586 161.125C48.6282 161.083 48.6849 161.059 48.7445 161.057C48.8047 161.057 48.8624 161.081 48.905 161.123C48.9476 161.166 48.9718 161.223 48.9721 161.284Z" fill="white"/>
<path d="M285.298 204.678C281.419 195.126 272.681 187.032 262.39 186.342C268.835 195.516 271.826 206.672 270.833 217.838C270.434 222.143 269.543 226.889 271.964 230.472C273.471 232.701 276.049 234.025 278.683 234.579C281.317 235.133 284.04 235.003 286.729 234.872L287.34 235.151C288.933 224.967 289.177 214.229 285.298 204.678Z" fill="#F2F2F2"/>
<path d="M262.346 186.553C269.486 191.232 274.969 198.039 278.017 206.009C278.704 207.713 279.118 209.515 279.243 211.347C279.307 213.137 278.891 214.911 278.037 216.485C277.271 217.968 276.315 219.397 275.923 221.041C275.734 221.886 275.727 222.761 275.901 223.608C276.074 224.456 276.425 225.258 276.931 225.96C278.144 227.743 279.927 228.984 281.712 230.138C283.694 231.418 285.774 232.716 287.024 234.783C287.176 235.033 287.556 234.783 287.404 234.533C285.228 230.938 280.849 229.738 278.102 226.711C276.82 225.299 275.957 223.492 276.283 221.551C276.568 219.854 277.552 218.379 278.341 216.884C279.197 215.36 279.666 213.651 279.708 211.905C279.676 210.071 279.333 208.257 278.692 206.539C277.311 202.648 275.327 198.998 272.812 195.723C269.963 191.969 266.491 188.73 262.549 186.146C262.305 185.987 262.104 186.395 262.346 186.553Z" fill="white"/>
<path d="M277.187 203.385C278.456 202.692 279.437 201.572 279.955 200.223C280.473 198.874 280.494 197.385 280.015 196.022C279.918 195.747 279.485 195.886 279.583 196.162C280.031 197.43 280.011 198.817 279.526 200.072C279.041 201.327 278.123 202.367 276.938 203.005C276.68 203.144 276.931 203.523 277.187 203.385Z" fill="white"/>
<path d="M278.525 215.784C275.682 214.978 273.248 213.13 271.707 210.61C271.555 210.36 271.175 210.61 271.327 210.859C272.935 213.479 275.473 215.396 278.433 216.228C278.715 216.308 278.806 215.862 278.525 215.784Z" fill="white"/>
<path d="M269.667 192.494C269.232 192.864 268.712 193.121 268.153 193.24C267.594 193.36 267.015 193.339 266.466 193.179C266.185 193.097 266.094 193.542 266.374 193.624C266.981 193.798 267.621 193.82 268.238 193.689C268.856 193.558 269.432 193.278 269.916 192.874C269.965 192.839 269.999 192.788 270.011 192.729C270.023 192.671 270.013 192.61 269.981 192.559C269.948 192.509 269.896 192.474 269.837 192.462C269.778 192.45 269.717 192.461 269.667 192.494Z" fill="white"/>
<path d="M238.381 211.687C238.555 211.743 238.729 211.8 238.905 211.86C241.24 212.633 243.509 213.595 245.689 214.735C245.859 214.821 246.03 214.91 246.197 215C251.42 217.804 256.076 221.552 259.929 226.054C261.461 227.847 262.854 229.754 264.096 231.758C265.812 234.526 267.451 237.663 269.909 239.645C270.163 239.854 270.43 240.048 270.708 240.225L286.951 235.874C286.983 235.846 287.016 235.821 287.048 235.793L287.705 235.649C287.648 235.541 287.587 235.43 287.53 235.322C287.497 235.26 287.461 235.198 287.428 235.135C287.405 235.094 287.382 235.052 287.364 235.014C287.356 235 287.348 234.986 287.342 234.976C287.323 234.937 287.302 234.903 287.285 234.868C286.944 234.249 286.598 233.631 286.248 233.014C286.247 233.01 286.247 233.01 286.242 233.008C283.558 228.316 280.458 223.807 276.772 219.911C276.661 219.794 276.55 219.673 276.431 219.558C274.76 217.812 272.949 216.204 271.016 214.752C269.955 213.961 268.854 213.224 267.718 212.543C264.78 210.791 261.585 209.511 258.249 208.752C251.599 207.238 244.539 207.866 238.816 211.412C238.67 211.502 238.527 211.592 238.381 211.687Z" fill="#F2F2F2"/>
<path d="M238.473 211.883C246.992 211.322 255.471 213.458 262.706 217.988C264.281 218.935 265.697 220.125 266.901 221.513C268.03 222.903 268.766 224.57 269.033 226.34C269.315 227.986 269.413 229.702 270.09 231.251C270.448 232.039 270.969 232.742 271.619 233.314C272.268 233.886 273.031 234.315 273.858 234.572C275.901 235.265 278.072 235.184 280.192 235.03C282.546 234.86 284.989 234.645 287.232 235.543C287.504 235.651 287.657 235.223 287.386 235.115C283.482 233.554 279.262 235.231 275.246 234.467C273.371 234.11 271.593 233.187 270.684 231.441C269.89 229.915 269.787 228.145 269.517 226.476C269.282 224.745 268.626 223.098 267.608 221.678C266.478 220.233 265.111 218.991 263.564 218.005C260.118 215.729 256.335 214.009 252.353 212.907C247.817 211.625 243.094 211.127 238.39 211.436C238.098 211.456 238.184 211.902 238.473 211.883Z" fill="white"/>
<path d="M260.463 216.392C261.058 215.076 261.166 213.591 260.767 212.202C260.369 210.814 259.489 209.612 258.285 208.812C258.041 208.651 257.779 209.022 258.024 209.184C259.146 209.927 259.965 211.046 260.334 212.34C260.703 213.634 260.596 215.017 260.035 216.239C259.913 216.505 260.341 216.657 260.463 216.392Z" fill="white"/>
<path d="M269 225.487C266.245 226.554 263.188 226.544 260.44 225.458C260.168 225.351 260.015 225.779 260.287 225.886C263.149 227.01 266.33 227.014 269.194 225.898C269.467 225.791 269.272 225.381 269 225.487Z" fill="white"/>
<path d="M247.897 212.222C247.772 212.779 247.512 213.297 247.138 213.728C246.764 214.16 246.288 214.492 245.754 214.695C245.48 214.798 245.676 215.208 245.948 215.106C246.537 214.879 247.062 214.511 247.476 214.035C247.89 213.559 248.182 212.989 248.325 212.375C248.343 212.318 248.339 212.256 248.313 212.202C248.288 212.149 248.243 212.106 248.187 212.084C248.131 212.064 248.068 212.068 248.014 212.093C247.959 212.119 247.917 212.165 247.897 212.222Z" fill="white"/>
<path d="M210.044 237.201C212.154 237.201 213.865 235.491 213.865 233.382C213.865 231.273 212.154 229.563 210.044 229.563C207.933 229.563 206.222 231.273 206.222 233.382C206.222 235.491 207.933 237.201 210.044 237.201Z" fill="#FD6584"/>
<path d="M223.58 172.152C225.691 172.152 227.402 170.442 227.402 168.333C227.402 166.224 225.691 164.514 223.58 164.514C221.47 164.514 219.759 166.224 219.759 168.333C219.759 170.442 221.47 172.152 223.58 172.152Z" fill="#E6E6E6"/>
<path d="M152.471 66.2161C154.581 66.2161 156.292 64.5063 156.292 62.397C156.292 60.2877 154.581 58.5778 152.471 58.5778C150.36 58.5778 148.649 60.2877 148.649 62.397C148.649 64.5063 150.36 66.2161 152.471 66.2161Z" fill="#E6E6E6"/>
<path d="M72.389 208.9C72.389 209.872 72.421 210.844 72.4891 211.808C72.5612 212.96 72.6853 214.105 72.8534 215.241C73.4185 219.067 74.4984 222.798 76.064 226.335C76.144 226.511 76.2241 226.687 76.3042 226.863L76.4243 227.127C76.4643 227.215 76.5084 227.303 76.5484 227.387C76.6044 227.503 76.6565 227.615 76.7125 227.727C76.7806 227.867 76.8486 228.007 76.9207 228.147C76.9287 228.163 76.9367 228.183 76.9487 228.203C77.0088 228.323 77.0648 228.439 77.1289 228.559C77.1406 228.586 77.154 228.611 77.1689 228.635C77.237 228.771 77.309 228.911 77.3811 229.047C77.4611 229.192 77.5372 229.34 77.6173 229.484C77.8094 229.84 78.0096 230.192 78.2137 230.544C78.2738 230.648 78.3338 230.752 78.3979 230.856C78.4539 230.952 78.51 231.048 78.57 231.144C78.6101 231.208 78.6501 231.276 78.6901 231.34C78.7542 231.448 78.8182 231.552 78.8863 231.66C79.0344 231.896 79.1865 232.132 79.3347 232.368H79.3387C79.4067 232.476 79.4788 232.584 79.5508 232.688V232.692C79.763 233.012 79.9832 233.332 80.2034 233.648L80.2049 233.649L80.2062 233.65L80.2071 233.651L80.2074 233.652C80.3835 233.908 80.5677 234.156 80.7478 234.405V234.409C80.8679 234.565 80.984 234.725 81.1041 234.881C81.2002 235.009 81.3003 235.141 81.4003 235.269C81.4203 235.297 81.4444 235.321 81.4644 235.349V235.353C81.4924 235.389 81.5204 235.421 81.5485 235.457C81.9728 236.001 82.4105 236.533 82.8615 237.053L82.9336 237.137C82.9576 237.165 82.9856 237.193 83.0096 237.225C83.0497 237.269 83.0857 237.313 83.1257 237.357C83.1618 237.401 83.2018 237.445 83.2418 237.489C85.593 240.136 88.2589 242.486 91.1803 244.487C91.5686 244.755 91.9649 245.015 92.3612 245.267C92.4613 245.331 92.5614 245.395 92.6615 245.455C92.6895 245.475 92.7215 245.495 92.7496 245.515C92.8056 245.547 92.8576 245.579 92.9137 245.615C92.9657 245.647 93.0178 245.679 93.0738 245.711C93.286 245.843 93.5022 245.971 93.7183 246.099C93.7704 246.131 93.8264 246.163 93.8825 246.195C93.9345 246.223 93.9906 246.255 94.0466 246.287C94.0466 246.291 94.0466 246.291 94.0506 246.291H94.0546V246.295H94.0586C94.3269 246.451 94.5991 246.603 94.8753 246.751C95.0234 246.831 95.1755 246.915 95.3277 246.991C95.6719 247.179 96.0202 247.359 96.3685 247.531C96.4926 247.591 96.6207 247.651 96.7448 247.715C96.8489 247.763 96.953 247.815 97.0571 247.863C97.0891 247.879 97.1171 247.891 97.1451 247.907C97.2332 247.947 97.3173 247.987 97.4053 248.027C97.5014 248.071 97.5975 248.115 97.6896 248.159C97.7977 248.207 97.9017 248.255 98.0098 248.299C98.4102 248.479 98.8145 248.651 99.2188 248.815C100.668 249.409 102.149 249.922 103.654 250.352C103.722 250.372 103.795 250.392 103.867 250.412C104.511 250.592 105.16 250.756 105.812 250.904C106.953 251.168 108.105 251.384 109.267 251.552H109.275C109.415 251.572 109.551 251.592 109.691 251.612C109.703 251.612 109.715 251.616 109.731 251.616C109.731 251.62 109.731 251.62 109.735 251.616C109.888 251.636 110.044 251.656 110.196 251.676C110.206 251.679 110.217 251.68 110.228 251.68C110.372 251.7 110.52 251.716 110.664 251.732C110.82 251.748 110.976 251.764 111.133 251.78C111.253 251.792 111.373 251.804 111.493 251.816C111.503 251.82 111.514 251.821 111.525 251.82C111.633 251.828 111.741 251.84 111.849 251.848H111.865C111.957 251.856 112.053 251.864 112.145 251.872C113.262 251.96 114.383 252 115.52 252C116.749 252 117.97 251.952 119.175 251.848H119.187C119.447 251.824 119.703 251.8 119.96 251.776C120.028 251.768 120.092 251.764 120.16 251.756C120.172 251.756 120.188 251.752 120.2 251.752C120.22 251.748 120.24 251.748 120.264 251.744C120.275 251.744 120.286 251.743 120.296 251.74C120.384 251.732 120.472 251.72 120.564 251.712L120.864 251.676C120.965 251.664 121.065 251.648 121.165 251.636C121.189 251.632 121.209 251.632 121.233 251.628C121.305 251.62 121.377 251.608 121.449 251.596C121.485 251.592 121.521 251.588 121.553 251.584C121.625 251.572 121.693 251.564 121.765 251.552H121.769C123.966 251.236 126.134 250.748 128.254 250.092C128.367 250.056 128.479 250.024 128.591 249.988C128.595 249.988 128.599 249.984 128.603 249.984C128.635 249.972 128.671 249.964 128.703 249.952C129.003 249.856 129.299 249.756 129.596 249.652C130.004 249.516 130.408 249.368 130.813 249.215C130.921 249.171 131.029 249.131 131.137 249.087C131.357 249.003 131.573 248.915 131.789 248.827C132.158 248.679 132.526 248.523 132.89 248.363C133.23 248.211 133.567 248.059 133.903 247.899C133.911 247.895 133.923 247.895 133.931 247.887C134.007 247.851 134.083 247.815 134.155 247.779H134.159C136.003 246.895 137.781 245.88 139.48 244.743C140.024 244.379 140.56 244.002 141.089 243.614C141.513 243.298 141.93 242.978 142.346 242.65C144.4 241.017 146.301 239.202 148.026 237.225V237.221C148.151 237.085 148.267 236.945 148.387 236.805C148.407 236.785 148.423 236.765 148.439 236.749C148.515 236.657 148.587 236.569 148.663 236.481V236.477C148.763 236.361 148.863 236.241 148.959 236.121C148.983 236.093 149.003 236.069 149.023 236.045V236.041C149.103 235.945 149.179 235.849 149.259 235.749C149.3 235.701 149.336 235.653 149.376 235.605V235.601C149.612 235.305 149.84 235.009 150.068 234.705C150.128 234.625 150.188 234.541 150.252 234.457C150.541 234.068 150.821 233.672 151.093 233.276V233.272C151.197 233.124 151.297 232.972 151.401 232.824C151.501 232.672 151.601 232.52 151.701 232.368C151.802 232.208 151.906 232.052 152.006 231.892L152.018 231.868C152.118 231.716 152.218 231.556 152.314 231.4C152.39 231.272 152.466 231.148 152.542 231.024C152.59 230.94 152.642 230.856 152.69 230.768C152.709 230.741 152.726 230.713 152.742 230.684C152.854 230.488 152.966 230.292 153.079 230.096C153.211 229.868 153.339 229.636 153.467 229.404C153.515 229.308 153.567 229.212 153.619 229.116C153.639 229.084 153.655 229.052 153.671 229.02C153.731 228.907 153.791 228.792 153.847 228.675C153.907 228.563 153.967 228.447 154.027 228.331C154.083 228.219 154.143 228.103 154.2 227.987C154.244 227.899 154.284 227.811 154.328 227.723C154.331 227.716 154.335 227.709 154.34 227.703C154.36 227.659 154.38 227.619 154.396 227.579C154.401 227.573 154.405 227.566 154.408 227.559C154.452 227.471 154.492 227.379 154.536 227.291C154.592 227.175 154.644 227.055 154.7 226.939C154.736 226.859 154.776 226.775 154.812 226.691C154.864 226.575 154.92 226.459 154.968 226.339C155.024 226.219 155.076 226.099 155.128 225.975C155.143 225.945 155.157 225.914 155.168 225.883C155.196 225.827 155.216 225.771 155.24 225.715C155.304 225.567 155.368 225.415 155.428 225.267C155.501 225.099 155.569 224.927 155.633 224.759C155.697 224.603 155.757 224.443 155.817 224.283L155.841 224.227C156.774 221.771 157.481 219.236 157.955 216.653V216.649C158.222 215.174 158.413 213.687 158.527 212.192C158.531 212.108 158.539 212.028 158.543 211.948C158.615 210.936 158.647 209.92 158.647 208.9C158.647 208.447 158.639 207.999 158.627 207.551C158.348 198.18 155.004 189.158 149.107 181.866C148.979 181.706 148.851 181.546 148.719 181.386C148.587 181.226 148.451 181.07 148.319 180.914C143.93 175.778 138.396 171.744 132.161 169.138C125.926 166.532 119.166 165.426 112.425 165.91C105.685 166.394 99.1521 168.454 93.3542 171.924C87.5563 175.394 82.6553 180.177 79.0464 185.887C78.8503 186.199 78.6541 186.515 78.466 186.831C78.2738 187.151 78.0897 187.471 77.9055 187.795C74.2788 194.238 72.3786 201.507 72.389 208.9Z" fill="#F2F2F2"/>
<path d="M113.806 180.707C120.898 182.526 128.166 183.574 135.483 183.834C136.589 183.894 137.698 183.887 138.804 183.812C141.233 183.607 143.315 182.844 145.632 182.427C146.747 182.227 147.988 182.081 149.109 181.865C148.85 181.544 148.586 181.226 148.318 180.913C145.899 181.117 143.443 181.785 140.995 182.096C136.834 182.625 132.171 182.035 129.017 180.579C127.486 179.873 126.314 178.992 124.789 178.283C124.581 178.176 124.357 178.107 124.125 178.079C123.686 178.066 123.251 178.179 122.873 178.404C120.315 179.695 116.6 180.744 113.152 180.167C112.895 180.368 113.383 180.597 113.806 180.707Z" fill="white"/>
<path d="M98.5475 185.25C98.516 185.244 98.4845 185.24 98.4529 185.235C98.5854 185.153 98.7101 185.059 98.8256 184.954L98.5475 185.25Z" fill="white"/>
<path d="M77.9064 187.797C79.3465 187.912 80.7941 187.998 82.2493 188.054C83.3558 188.114 84.4649 188.106 85.5705 188.031C88 187.826 90.0811 187.064 92.3989 186.647C94.523 186.265 97.1042 186.082 98.4529 185.235C94.9672 184.632 91.3556 185.859 87.7613 186.316C84.8539 186.673 81.9066 186.528 79.0486 185.886C78.6506 186.512 78.2699 187.149 77.9064 187.797Z" fill="white"/>
<path d="M95.3276 246.991C95.6719 247.179 96.0202 247.359 96.3685 247.531C96.4926 247.591 96.6207 247.651 96.7448 247.715C96.8489 247.763 96.953 247.815 97.057 247.863C97.0891 247.879 97.1171 247.891 97.1451 247.907C97.2332 247.947 97.3173 247.987 97.4053 248.027C97.5014 248.071 97.5975 248.115 97.6896 248.159C97.7977 248.207 97.9017 248.255 98.0098 248.299C98.4101 248.479 98.8145 248.651 99.2188 248.815C100.668 249.409 102.149 249.922 103.654 250.352C103.722 250.372 103.795 250.392 103.867 250.412C104.511 250.592 105.16 250.756 105.812 250.904C106.953 251.168 108.105 251.384 109.267 251.552H109.275C109.415 251.572 109.551 251.592 109.691 251.612C109.703 251.612 109.715 251.616 109.731 251.616C109.731 251.62 109.731 251.62 109.735 251.616C109.887 251.636 110.044 251.656 110.196 251.676C110.206 251.679 110.217 251.68 110.228 251.68C110.372 251.7 110.52 251.716 110.664 251.732C110.82 251.748 110.976 251.764 111.133 251.78C111.253 251.792 111.373 251.804 111.493 251.816C111.503 251.82 111.514 251.821 111.525 251.82C111.633 251.828 111.741 251.84 111.849 251.848H111.865C111.957 251.856 112.053 251.864 112.145 251.872C113.262 251.96 114.383 252 115.52 252C116.749 252 117.97 251.952 119.175 251.848H119.187C119.447 251.824 119.703 251.8 119.96 251.776C120.028 251.768 120.092 251.764 120.16 251.756C120.172 251.756 120.188 251.752 120.2 251.752C120.22 251.748 120.24 251.748 120.264 251.744C120.275 251.744 120.286 251.743 120.296 251.74C120.384 251.732 120.472 251.72 120.564 251.712L120.864 251.676C120.964 251.664 121.065 251.648 121.165 251.636C121.189 251.632 121.209 251.632 121.233 251.628C121.305 251.62 121.377 251.608 121.449 251.596C121.485 251.592 121.521 251.588 121.553 251.584C121.625 251.572 121.693 251.564 121.765 251.552H121.769C123.966 251.236 126.134 250.748 128.254 250.092C128.367 250.056 128.479 250.024 128.591 249.988C128.074 247.579 127.01 245.32 125.48 243.388C123.951 241.455 121.998 239.9 119.772 238.841C120.322 238.317 120.703 237.64 120.864 236.897C120.968 236.418 120.977 235.924 120.889 235.442C120.801 234.96 120.618 234.5 120.352 234.089C119.833 233.291 119.017 232.733 118.086 232.536L112.153 231.296C111.198 231.11 110.208 231.308 109.399 231.847C108.589 232.387 108.025 233.224 107.83 234.177C107.769 234.469 107.742 234.767 107.75 235.065C102.037 238.865 97.9257 242.806 95.3276 246.991Z" fill="#3C5D9C"/>
<path d="M112.845 228.954C119.672 228.954 125.206 223.424 125.206 216.601C125.206 209.779 119.672 204.249 112.845 204.249C106.019 204.249 100.485 209.779 100.485 216.601C100.485 223.424 106.019 228.954 112.845 228.954Z" fill="#FFB8B8"/>
<path d="M105.141 227.251C103.823 226.352 102.477 224.622 101.578 223.327C100.388 221.623 99.5684 219.689 99.1736 217.648C98.7788 215.608 98.8173 213.508 99.2867 211.484C99.4363 210.674 99.8042 209.921 100.351 209.305C100.933 208.73 101.884 208.457 102.594 208.864C102.4 208.345 102.315 207.792 102.343 207.238C102.372 206.685 102.513 206.144 102.759 205.647C103.258 204.656 103.982 203.795 104.872 203.132C106.575 201.821 108.602 200.996 110.736 200.743C112.87 200.491 115.033 200.82 116.996 201.697C117.768 202.055 116.5 199.293 117.308 199.56C118.11 199.87 119.003 199.855 119.794 199.516C120.554 199.134 123.074 201.405 122.782 200.606C123.359 200.868 123.86 201.272 124.239 201.779C124.618 202.286 124.862 202.881 124.949 203.508C125.036 204.136 124.962 204.774 124.735 205.365C124.508 205.957 124.136 206.481 123.652 206.889C123.014 207.427 122.217 207.737 121.519 208.194C120.295 209.054 119.429 210.333 119.084 211.788C118.739 213.243 118.939 214.774 119.646 216.092C118.911 215.62 118.104 215.27 117.258 215.055C116.833 214.951 116.39 214.95 115.965 215.053C115.54 215.155 115.145 215.357 114.814 215.642C114.537 215.959 114.328 216.328 114.2 216.728C114.071 217.129 114.026 217.551 114.067 217.969C114.094 218.807 114.294 219.633 114.316 220.472C114.382 222.932 115.7 227.609 113.792 228.917C112.285 229.949 106.941 228.48 105.141 227.251Z" fill="#2F2E41"/>
<path d="M121.344 154.773C121.084 154.772 120.826 154.72 120.586 154.62C120.228 154.476 119.921 154.227 119.707 153.906C119.492 153.586 119.379 153.207 119.384 152.821V150.866C119.383 150.456 119.22 150.063 118.93 149.773C118.64 149.483 118.246 149.32 117.836 149.319C117.319 149.319 116.824 149.113 116.459 148.748C116.094 148.383 115.888 147.888 115.888 147.372V120.585C115.888 120.069 116.093 119.574 116.459 119.209C116.824 118.844 117.319 118.638 117.836 118.638H206.638C207.155 118.638 207.65 118.844 208.015 119.209C208.381 119.574 208.586 120.069 208.587 120.585V147.372C208.586 147.888 208.381 148.383 208.015 148.748C207.65 149.113 207.155 149.319 206.638 149.319H128.233C128.029 149.319 127.828 149.358 127.64 149.436C127.452 149.514 127.281 149.628 127.138 149.772L122.709 154.198C122.531 154.379 122.319 154.524 122.085 154.622C121.85 154.721 121.598 154.772 121.344 154.773Z" fill="white"/>
<path d="M121.344 155.173C121.031 155.173 120.721 155.11 120.433 154.989C120.001 154.816 119.631 154.516 119.373 154.129C119.114 153.742 118.978 153.287 118.983 152.821V150.866C118.983 150.562 118.862 150.271 118.647 150.056C118.432 149.841 118.14 149.72 117.836 149.719C117.213 149.719 116.616 149.471 116.176 149.031C115.736 148.591 115.488 147.994 115.487 147.372V120.585C115.488 119.963 115.735 119.366 116.176 118.926C116.616 118.486 117.213 118.238 117.836 118.238H206.638C207.261 118.238 207.858 118.486 208.298 118.926C208.739 119.366 208.986 119.963 208.987 120.585V147.372C208.986 147.994 208.739 148.591 208.298 149.031C207.858 149.471 207.261 149.719 206.638 149.719H128.232C128.082 149.719 127.932 149.748 127.793 149.806C127.654 149.864 127.527 149.948 127.421 150.055L122.993 154.481C122.777 154.699 122.521 154.873 122.238 154.992C121.955 155.111 121.651 155.172 121.344 155.173ZM117.836 119.038C117.425 119.038 117.032 119.201 116.742 119.491C116.451 119.781 116.288 120.175 116.288 120.585V147.372C116.288 147.782 116.451 148.175 116.742 148.465C117.032 148.756 117.425 148.919 117.836 148.919C118.352 148.92 118.847 149.125 119.213 149.49C119.578 149.855 119.783 150.35 119.784 150.866V152.821C119.784 153.127 119.875 153.426 120.045 153.681C120.215 153.935 120.457 154.133 120.74 154.25C121.022 154.367 121.334 154.398 121.634 154.338C121.934 154.279 122.21 154.131 122.426 153.915L126.855 149.49C127.035 149.308 127.25 149.164 127.486 149.066C127.723 148.968 127.977 148.918 128.232 148.919H206.638C207.049 148.919 207.442 148.756 207.733 148.465C208.023 148.175 208.186 147.782 208.186 147.372V120.585C208.186 120.175 208.023 119.781 207.732 119.491C207.442 119.201 207.049 119.038 206.638 119.038L117.836 119.038Z" fill="#3F3D56"/>
<path d="M199.007 130.765H126.998C126.722 130.765 126.459 130.656 126.264 130.462C126.07 130.267 125.96 130.004 125.96 129.729C125.96 129.454 126.07 129.19 126.264 128.996C126.459 128.801 126.722 128.692 126.998 128.692H199.007C199.282 128.692 199.546 128.801 199.741 128.996C199.935 129.19 200.045 129.454 200.045 129.729C200.045 130.004 199.935 130.267 199.741 130.462C199.546 130.656 199.282 130.765 199.007 130.765Z" fill="#3C5D9C"/>
<path d="M198.875 135.169H126.998C126.722 135.169 126.459 135.06 126.264 134.865C126.07 134.671 125.96 134.407 125.96 134.132C125.96 133.857 126.07 133.594 126.264 133.399C126.459 133.205 126.722 133.096 126.998 133.096H198.875C199.15 133.096 199.414 133.205 199.608 133.399C199.803 133.594 199.912 133.857 199.912 134.132C199.912 134.407 199.803 134.671 199.608 134.865C199.414 135.06 199.15 135.169 198.875 135.169Z" fill="#E6E6E6"/>
<path d="M198.804 139.572H126.998C126.722 139.572 126.459 139.463 126.264 139.269C126.07 139.074 125.96 138.811 125.96 138.536C125.96 138.261 126.07 137.997 126.264 137.803C126.459 137.608 126.722 137.499 126.998 137.499H198.804C199.079 137.499 199.342 137.608 199.537 137.803C199.731 137.997 199.841 138.261 199.841 138.536C199.841 138.811 199.731 139.074 199.537 139.269C199.342 139.463 199.079 139.572 198.804 139.572Z" fill="#E6E6E6"/>
<path d="M312.408 114.481C312.408 115.453 312.376 116.425 312.308 117.389C312.236 118.542 312.112 119.686 311.944 120.822C311.379 124.648 310.299 128.38 308.733 131.916C308.653 132.092 308.573 132.268 308.493 132.444L308.373 132.708C308.333 132.796 308.289 132.884 308.249 132.969C308.193 133.085 308.141 133.197 308.085 133.309C308.016 133.449 307.948 133.589 307.876 133.729C307.868 133.745 307.86 133.765 307.848 133.785C307.788 133.905 307.732 134.021 307.668 134.141C307.656 134.167 307.643 134.192 307.628 134.217C307.56 134.353 307.488 134.493 307.416 134.629C307.336 134.773 307.26 134.921 307.18 135.065C306.988 135.421 306.787 135.773 306.583 136.125C306.523 136.229 306.463 136.333 306.399 136.437C306.343 136.533 306.287 136.629 306.227 136.725C306.187 136.789 306.147 136.857 306.107 136.921C306.043 137.029 305.979 137.133 305.911 137.241C305.763 137.477 305.61 137.713 305.462 137.949H305.458C305.39 138.058 305.318 138.166 305.246 138.27V138.274C305.034 138.594 304.814 138.914 304.594 139.23C304.593 139.23 304.593 139.23 304.592 139.23C304.592 139.23 304.591 139.23 304.591 139.231C304.59 139.231 304.59 139.232 304.59 139.232C304.59 139.233 304.59 139.233 304.59 139.234C304.414 139.49 304.229 139.738 304.049 139.986V139.99C303.929 140.146 303.813 140.306 303.693 140.462C303.597 140.59 303.497 140.722 303.397 140.85C303.377 140.878 303.353 140.902 303.333 140.93V140.934C303.305 140.97 303.277 141.002 303.249 141.038C302.824 141.582 302.387 142.114 301.936 142.634L301.863 142.718C301.839 142.746 301.811 142.774 301.787 142.806C301.747 142.85 301.711 142.894 301.671 142.938C301.635 142.982 301.595 143.026 301.555 143.07C299.204 145.717 296.538 148.067 293.617 150.068C293.228 150.336 292.832 150.596 292.436 150.848C292.336 150.912 292.236 150.976 292.136 151.036C292.108 151.056 292.075 151.076 292.047 151.096C291.991 151.128 291.939 151.16 291.883 151.196C291.831 151.228 291.779 151.26 291.723 151.292C291.511 151.424 291.295 151.552 291.079 151.68C291.027 151.712 290.971 151.744 290.915 151.776C290.862 151.804 290.806 151.836 290.75 151.868C290.75 151.872 290.75 151.872 290.746 151.872H290.742V151.876H290.738C290.47 152.032 290.198 152.184 289.922 152.332C289.774 152.412 289.621 152.496 289.469 152.572C289.125 152.76 288.777 152.94 288.429 153.112C288.304 153.172 288.176 153.232 288.052 153.297C287.948 153.345 287.844 153.397 287.74 153.445C287.708 153.461 287.68 153.473 287.652 153.489C287.564 153.529 287.48 153.569 287.392 153.609C287.296 153.653 287.2 153.697 287.107 153.741C286.999 153.789 286.895 153.837 286.787 153.881C286.387 154.061 285.983 154.233 285.578 154.397C284.129 154.99 282.648 155.503 281.143 155.933C281.075 155.953 281.002 155.973 280.93 155.993C280.286 156.173 279.637 156.337 278.985 156.485C277.844 156.749 276.692 156.965 275.53 157.133H275.522C275.382 157.153 275.246 157.173 275.106 157.193C275.094 157.193 275.082 157.197 275.066 157.197C275.066 157.201 275.066 157.201 275.062 157.197C274.91 157.217 274.753 157.237 274.601 157.257C274.591 157.26 274.58 157.262 274.569 157.261C274.425 157.281 274.277 157.297 274.133 157.313C273.977 157.329 273.821 157.345 273.665 157.361C273.544 157.373 273.424 157.385 273.304 157.397C273.294 157.401 273.283 157.402 273.272 157.401C273.164 157.409 273.056 157.421 272.948 157.429H272.932C272.84 157.437 272.744 157.445 272.652 157.453C271.535 157.541 270.414 157.581 269.277 157.581C268.048 157.581 266.827 157.533 265.622 157.429H265.61C265.35 157.405 265.094 157.381 264.837 157.357C264.769 157.349 264.705 157.345 264.637 157.337C264.625 157.337 264.609 157.333 264.597 157.333C264.577 157.329 264.557 157.329 264.533 157.325C264.522 157.326 264.511 157.324 264.501 157.321C264.413 157.313 264.325 157.301 264.233 157.293L263.933 157.257C263.833 157.245 263.732 157.229 263.632 157.217C263.608 157.213 263.588 157.213 263.564 157.209C263.492 157.201 263.42 157.189 263.348 157.177C263.312 157.173 263.276 157.169 263.244 157.165C263.172 157.153 263.104 157.145 263.032 157.133H263.028C260.831 156.817 258.663 156.329 256.543 155.673C256.43 155.637 256.318 155.605 256.206 155.569C256.202 155.569 256.198 155.565 256.194 155.565C256.162 155.553 256.126 155.545 256.094 155.533C255.794 155.437 255.498 155.337 255.202 155.233C254.793 155.097 254.389 154.949 253.985 154.797C253.876 154.753 253.768 154.713 253.66 154.669C253.44 154.585 253.224 154.497 253.008 154.409C252.639 154.261 252.271 154.105 251.907 153.945C251.567 153.793 251.23 153.641 250.894 153.481C250.886 153.477 250.874 153.477 250.866 153.469C250.79 153.433 250.714 153.397 250.642 153.361H250.638C248.794 152.476 247.016 151.462 245.317 150.324C244.773 149.96 244.237 149.584 243.708 149.196C243.284 148.88 242.867 148.56 242.451 148.232C240.397 146.599 238.496 144.783 236.771 142.806V142.802C236.646 142.666 236.53 142.526 236.41 142.386C236.39 142.366 236.374 142.346 236.358 142.33C236.282 142.238 236.21 142.15 236.134 142.062V142.058C236.034 141.942 235.934 141.822 235.838 141.702C235.814 141.674 235.794 141.65 235.774 141.626V141.622C235.694 141.526 235.618 141.43 235.538 141.33C235.498 141.282 235.461 141.234 235.421 141.186V141.182C235.185 140.886 234.957 140.59 234.729 140.286C234.669 140.206 234.609 140.122 234.545 140.038C234.257 139.65 233.976 139.254 233.704 138.858V138.854C233.6 138.706 233.5 138.554 233.396 138.406C233.296 138.254 233.196 138.102 233.096 137.95C232.995 137.789 232.891 137.633 232.791 137.473L232.779 137.449C232.679 137.297 232.579 137.137 232.483 136.981C232.407 136.853 232.331 136.729 232.255 136.605C232.207 136.521 232.155 136.437 232.107 136.349C232.088 136.322 232.071 136.294 232.055 136.265C231.943 136.069 231.831 135.873 231.718 135.677C231.586 135.449 231.458 135.217 231.33 134.985C231.282 134.889 231.23 134.793 231.178 134.697C231.158 134.665 231.142 134.633 231.126 134.601C231.066 134.489 231.006 134.373 230.95 134.257C230.89 134.145 230.83 134.029 230.77 133.913C230.714 133.801 230.654 133.685 230.598 133.569C230.553 133.481 230.513 133.393 230.469 133.305C230.466 133.297 230.462 133.291 230.457 133.285C230.437 133.241 230.417 133.201 230.401 133.161C230.396 133.154 230.392 133.148 230.389 133.141C230.345 133.053 230.305 132.961 230.261 132.873C230.205 132.756 230.153 132.636 230.097 132.52C230.061 132.44 230.021 132.356 229.985 132.272C229.933 132.156 229.877 132.04 229.829 131.92C229.773 131.8 229.721 131.68 229.669 131.556C229.654 131.526 229.64 131.496 229.629 131.464C229.601 131.408 229.581 131.352 229.557 131.296C229.493 131.148 229.429 130.996 229.369 130.848C229.296 130.68 229.228 130.508 229.164 130.34C229.1 130.184 229.04 130.024 228.98 129.864L228.956 129.808C228.023 127.353 227.316 124.818 226.842 122.234V122.23C226.575 120.756 226.384 119.268 226.27 117.774C226.266 117.69 226.258 117.609 226.254 117.529C226.182 116.517 226.15 115.501 226.15 114.481C226.15 114.029 226.158 113.581 226.17 113.133C226.449 103.761 229.793 94.7395 235.69 87.4475C235.818 87.2875 235.946 87.1275 236.078 86.9674C236.21 86.8074 236.346 86.6514 236.478 86.4953C240.867 81.3592 246.401 77.3254 252.636 74.7192C258.871 72.113 265.631 71.0073 272.372 71.4912C279.112 71.9751 285.645 74.0351 291.443 77.5051C297.241 80.9751 302.142 85.7581 305.751 91.4683C305.947 91.7804 306.143 92.0965 306.331 92.4125C306.523 92.7326 306.707 93.0527 306.892 93.3767C310.518 99.8193 312.418 107.089 312.408 114.481Z" fill="#F2F2F2"/>
<path d="M270.991 86.2887C263.899 88.1074 256.632 89.1557 249.314 89.4155C248.208 89.4757 247.099 89.4682 245.993 89.3929C243.564 89.1887 241.482 88.4255 239.165 88.0085C238.051 87.8086 236.809 87.6624 235.688 87.4464C235.947 87.125 236.211 86.8075 236.479 86.494C238.898 86.6983 241.354 87.3668 243.802 87.6775C247.963 88.2063 252.626 87.6162 255.78 86.1608C257.311 85.4547 258.483 84.5733 260.008 83.8639C260.216 83.7575 260.44 83.6887 260.672 83.6607C261.111 83.6476 261.546 83.7602 261.924 83.9853C264.482 85.2762 268.197 86.3253 271.645 85.7481C271.902 85.9491 271.414 86.178 270.991 86.2887Z" fill="white"/>
<path d="M286.25 90.8316C286.281 90.8259 286.313 90.8214 286.344 90.8159C286.212 90.7339 286.087 90.64 285.971 90.5353L286.25 90.8316Z" fill="white"/>
<path d="M306.891 93.3784C305.451 93.4934 304.003 93.5791 302.548 93.6353C301.441 93.695 300.332 93.6875 299.227 93.6128C296.797 93.4075 294.716 92.6454 292.398 92.2283C290.274 91.8468 287.693 91.663 286.344 90.816C289.83 90.213 293.441 91.4405 297.036 91.8973C299.943 92.2546 302.89 92.1091 305.749 91.4674C306.146 92.0929 306.527 92.7299 306.891 93.3784Z" fill="white"/>
<path d="M264.415 133.341C271.569 133.341 277.369 127.416 277.369 120.107C277.369 112.797 271.569 106.872 264.415 106.872C257.261 106.872 251.461 112.797 251.461 120.107C251.461 127.416 257.261 133.341 264.415 133.341Z" fill="#FFB6B6"/>
<path d="M289.469 152.572C289.125 152.76 288.777 152.94 288.429 153.112C288.304 153.172 288.176 153.233 288.052 153.297C287.948 153.345 287.844 153.397 287.74 153.445C287.708 153.461 287.68 153.473 287.652 153.489C287.564 153.529 287.48 153.569 287.392 153.609C287.296 153.653 287.2 153.697 287.107 153.741C286.999 153.789 286.895 153.837 286.787 153.881C286.387 154.061 285.983 154.233 285.578 154.397C284.129 154.99 282.648 155.503 281.143 155.933C281.075 155.953 281.003 155.973 280.93 155.993C280.286 156.173 279.637 156.337 278.985 156.485C277.844 156.749 276.692 156.965 275.53 157.133H275.522C275.382 157.153 275.246 157.173 275.106 157.193C275.094 157.193 275.082 157.197 275.066 157.197C275.066 157.201 275.066 157.201 275.062 157.197C274.91 157.217 274.753 157.237 274.601 157.257C274.591 157.26 274.58 157.262 274.569 157.261C274.425 157.281 274.277 157.297 274.133 157.313C273.977 157.329 273.821 157.345 273.665 157.361C273.544 157.373 273.424 157.385 273.304 157.397C273.294 157.401 273.283 157.402 273.272 157.401C273.164 157.409 273.056 157.421 272.948 157.429H272.932C272.84 157.437 272.744 157.445 272.652 157.453C271.535 157.541 270.414 157.581 269.277 157.581C268.048 157.581 266.827 157.533 265.622 157.429H265.61C265.35 157.405 265.094 157.381 264.837 157.357C264.769 157.349 264.705 157.345 264.637 157.337C264.625 157.337 264.609 157.333 264.597 157.333C264.577 157.329 264.557 157.329 264.533 157.325C264.522 157.326 264.511 157.324 264.501 157.321C264.413 157.313 264.325 157.301 264.233 157.293L263.933 157.257C263.833 157.245 263.732 157.229 263.632 157.217C263.608 157.213 263.588 157.213 263.564 157.209C263.492 157.201 263.42 157.189 263.348 157.177C263.312 157.173 263.276 157.169 263.244 157.165C263.172 157.153 263.104 157.145 263.032 157.133H263.028C260.831 156.817 258.663 156.329 256.543 155.673C256.43 155.637 256.318 155.605 256.206 155.569C256.723 153.16 257.787 150.902 259.317 148.969C260.846 147.036 262.799 145.481 265.025 144.423C264.475 143.898 264.094 143.221 263.933 142.478C263.829 142 263.82 141.505 263.908 141.023C263.996 140.541 264.179 140.081 264.445 139.67C264.965 138.873 265.78 138.314 266.711 138.118L272.644 136.877C273.599 136.691 274.589 136.889 275.398 137.429C276.208 137.968 276.772 138.805 276.967 139.758C277.028 140.05 277.055 140.348 277.047 140.646C282.76 144.447 286.871 148.388 289.469 152.572Z" fill="#3C5D9C"/>
<path d="M299.078 114.367C296.876 111.801 295.829 108.396 294.069 105.482C292.309 102.568 289.246 99.9599 286.01 100.638C283.779 101.106 282.055 103.073 281.182 105.266C280.31 107.459 280.146 109.878 279.993 112.247C280.047 107.378 276.837 102.657 272.415 101.104C267.993 99.5499 262.701 101.283 259.923 105.195C258.71 104.072 257.128 103.432 255.475 103.398C253.822 103.363 252.214 103.936 250.955 105.007C248.47 107.227 247.92 111.452 249.747 114.284C251.575 117.115 255.534 118.17 258.438 116.6L259.465 117.544C258.887 119.564 260.008 121.951 261.892 122.711C263.42 123.328 265.578 123.226 266.149 124.828C266.549 125.948 265.802 127.143 265.008 128.003C264.213 128.864 263.27 129.752 263.175 130.943C263.031 132.74 264.888 133.998 266.577 134.377C270.649 135.291 275.167 133.407 277.514 129.815C277.559 129.746 277.608 129.677 277.661 129.607C278.978 127.925 279.938 125.991 280.481 123.925C281.025 121.859 281.142 119.704 280.824 117.592C280.692 116.762 280.825 116.144 281.398 115.948C283.873 115.098 290.807 116.881 292.906 118.493C295.004 120.105 296.685 122.237 298.706 123.953C300.728 125.669 303.304 126.992 305.871 126.525C307.926 126.151 309.675 124.659 310.852 122.86C312.028 121.061 312.705 118.964 313.311 116.88C308.765 119.505 302.544 118.406 299.078 114.367Z" fill="#2F2E41"/>
<path d="M33.1571 87.6756C33.1571 88.6477 33.1892 89.6199 33.2572 90.5841C33.3293 91.7364 33.4534 92.8806 33.6215 94.0168C34.1866 97.8426 35.2666 101.574 36.8321 105.111C36.9122 105.287 36.9922 105.463 37.0723 105.639L37.1924 105.903C37.2325 105.991 37.2765 106.079 37.3165 106.163C37.3726 106.279 37.4246 106.391 37.4807 106.503C37.5487 106.643 37.6168 106.783 37.6888 106.923C37.6968 106.939 37.7048 106.959 37.7168 106.979C37.7769 107.099 37.8329 107.215 37.897 107.335C37.9088 107.362 37.9221 107.387 37.937 107.411C38.0051 107.547 38.0771 107.688 38.1492 107.824C38.2293 107.968 38.3053 108.116 38.3854 108.26C38.5776 108.616 38.7777 108.968 38.9819 109.32C39.0419 109.424 39.102 109.528 39.166 109.632C39.2221 109.728 39.2781 109.824 39.3382 109.92C39.3782 109.984 39.4182 110.052 39.4583 110.116C39.5223 110.224 39.5864 110.328 39.6544 110.436C39.8025 110.672 39.9547 110.908 40.1028 111.144H40.1068C40.1748 111.252 40.2469 111.36 40.319 111.464V111.468C40.5311 111.788 40.7513 112.108 40.9715 112.424C40.972 112.424 40.9725 112.425 40.973 112.425C40.9735 112.425 40.974 112.425 40.9744 112.426C40.9747 112.426 40.975 112.426 40.9752 112.427C40.9754 112.427 40.9755 112.428 40.9755 112.428C41.1516 112.684 41.3358 112.933 41.5159 113.181V113.185C41.636 113.341 41.7521 113.501 41.8722 113.657C41.9683 113.785 42.0684 113.917 42.1685 114.045C42.1885 114.073 42.2125 114.097 42.2325 114.125V114.129C42.2605 114.165 42.2886 114.197 42.3166 114.233C42.7409 114.777 43.1786 115.309 43.6297 115.829L43.7017 115.913C43.7257 115.941 43.7538 115.969 43.7778 116.001C43.8178 116.045 43.8538 116.089 43.8939 116.133C43.9299 116.177 43.9699 116.221 44.01 116.265C46.3611 118.912 49.027 121.262 51.9484 123.263C52.3367 123.531 52.733 123.791 53.1294 124.043C53.2295 124.107 53.3295 124.171 53.4296 124.231C53.4576 124.251 53.4897 124.271 53.5177 124.291C53.5737 124.323 53.6258 124.355 53.6818 124.391C53.7339 124.423 53.7859 124.455 53.8419 124.487C54.0541 124.619 54.2703 124.747 54.4865 124.875C54.5385 124.907 54.5946 124.939 54.6506 124.971C54.7027 124.999 54.7587 125.031 54.8147 125.063C54.8147 125.067 54.8147 125.067 54.8187 125.067H54.8228V125.071H54.8267C55.095 125.227 55.3672 125.379 55.6434 125.527C55.7915 125.607 55.9437 125.691 56.0958 125.767C56.4401 125.955 56.7883 126.135 57.1366 126.307C57.2607 126.367 57.3888 126.427 57.5129 126.491C57.617 126.539 57.7211 126.591 57.8252 126.639C57.8572 126.655 57.8852 126.667 57.9133 126.683C58.0013 126.723 58.0854 126.763 58.1735 126.803C58.2695 126.847 58.3656 126.891 58.4577 126.935C58.5658 126.983 58.6699 127.031 58.778 127.075C59.1783 127.255 59.5826 127.427 59.9869 127.591C61.4359 128.185 62.9167 128.698 64.4225 129.128C64.4906 129.148 64.5627 129.168 64.6347 129.188C65.2793 129.368 65.9278 129.532 66.5803 129.68C67.7213 129.944 68.8728 130.16 70.0351 130.328H70.0431C70.1833 130.348 70.3194 130.368 70.4595 130.388C70.4715 130.388 70.4835 130.392 70.4995 130.392C70.4995 130.396 70.4995 130.396 70.5035 130.392C70.6556 130.412 70.8118 130.432 70.9639 130.452C70.9743 130.455 70.9851 130.456 70.9959 130.456C71.14 130.476 71.2882 130.492 71.4323 130.508C71.5884 130.524 71.7445 130.54 71.9006 130.556C72.0207 130.568 72.1408 130.58 72.2609 130.592C72.2712 130.596 72.2821 130.597 72.293 130.596C72.4011 130.604 72.5091 130.616 72.6172 130.624H72.6332C72.7253 130.632 72.8214 130.64 72.9135 130.648C74.0304 130.736 75.1513 130.776 76.2882 130.776C77.5172 130.776 78.7382 130.728 79.9432 130.624H79.9552C80.2154 130.6 80.4716 130.576 80.7278 130.552C80.7959 130.544 80.8599 130.54 80.928 130.532C80.94 130.532 80.956 130.528 80.968 130.528C80.988 130.524 81.008 130.524 81.0321 130.52C81.0429 130.52 81.0537 130.519 81.0641 130.516C81.1522 130.508 81.2402 130.496 81.3323 130.488L81.6325 130.452C81.7326 130.44 81.8327 130.424 81.9328 130.412C81.9568 130.408 81.9768 130.408 82.0009 130.404C82.0729 130.396 82.145 130.384 82.217 130.372C82.2531 130.368 82.2891 130.364 82.3211 130.36C82.3932 130.348 82.4612 130.34 82.5333 130.328H82.5373C84.734 130.012 86.9025 129.524 89.0226 128.868C89.1347 128.832 89.2467 128.8 89.3588 128.764C89.3628 128.764 89.3668 128.76 89.3708 128.76C89.4029 128.748 89.4389 128.74 89.4709 128.728C89.7712 128.632 90.0674 128.532 90.3636 128.428C90.772 128.292 91.1763 128.144 91.5806 127.992C91.6887 127.948 91.7968 127.908 91.9049 127.863C92.1251 127.779 92.3413 127.691 92.5574 127.603C92.9257 127.455 93.294 127.299 93.6583 127.139C93.9986 126.987 94.3349 126.835 94.6711 126.675C94.6792 126.671 94.6912 126.671 94.6992 126.663C94.7752 126.627 94.8513 126.591 94.9234 126.555H94.9274C96.7709 125.671 98.5489 124.656 100.248 123.519C100.792 123.155 101.329 122.778 101.857 122.39C102.281 122.074 102.698 121.754 103.114 121.426C105.168 119.793 107.069 117.978 108.795 116.001V115.997C108.919 115.861 109.035 115.721 109.155 115.581C109.175 115.561 109.191 115.541 109.207 115.525C109.283 115.433 109.355 115.345 109.431 115.257V115.253C109.531 115.137 109.631 115.017 109.727 114.897C109.751 114.869 109.771 114.845 109.791 114.821V114.817C109.872 114.721 109.948 114.625 110.028 114.525C110.068 114.477 110.104 114.429 110.144 114.381V114.377C110.38 114.081 110.608 113.785 110.836 113.481C110.896 113.401 110.956 113.317 111.02 113.233C111.309 112.845 111.589 112.448 111.861 112.052V112.048C111.965 111.9 112.065 111.748 112.169 111.6C112.269 111.448 112.37 111.296 112.47 111.144C112.57 110.984 112.674 110.828 112.774 110.668L112.786 110.644C112.886 110.492 112.986 110.332 113.082 110.176C113.158 110.048 113.234 109.924 113.31 109.8C113.358 109.716 113.41 109.632 113.458 109.544C113.477 109.517 113.495 109.489 113.51 109.46C113.623 109.264 113.735 109.068 113.847 108.872C113.979 108.644 114.107 108.412 114.235 108.18C114.283 108.084 114.335 107.988 114.387 107.892C114.407 107.86 114.423 107.828 114.439 107.796C114.499 107.684 114.559 107.568 114.615 107.451C114.675 107.339 114.735 107.223 114.796 107.107C114.852 106.995 114.912 106.879 114.968 106.763C115.012 106.675 115.052 106.587 115.096 106.499C115.099 106.492 115.103 106.485 115.108 106.479C115.128 106.435 115.148 106.395 115.164 106.355C115.169 106.349 115.173 106.342 115.176 106.335C115.22 106.247 115.26 106.155 115.304 106.067C115.36 105.951 115.412 105.831 115.468 105.715C115.504 105.635 115.544 105.551 115.58 105.467C115.632 105.351 115.688 105.235 115.736 105.115C115.792 104.995 115.844 104.875 115.896 104.751C115.911 104.721 115.925 104.69 115.936 104.659C115.964 104.603 115.984 104.547 116.008 104.491C116.073 104.343 116.137 104.191 116.197 104.043C116.269 103.875 116.337 103.703 116.401 103.535C116.465 103.379 116.525 103.219 116.585 103.059L116.609 103.003C117.542 100.547 118.249 98.0124 118.723 95.4291V95.4251C118.99 93.9503 119.181 92.4627 119.295 90.9682C119.299 90.8842 119.307 90.8042 119.311 90.7242C119.383 89.712 119.415 88.6958 119.415 87.6756C119.415 87.2235 119.407 86.7754 119.395 86.3273C119.116 76.956 115.772 67.9342 109.876 60.6422C109.747 60.4822 109.619 60.3222 109.487 60.1621C109.355 60.0021 109.219 59.8461 109.087 59.6901C104.698 54.5539 99.1637 50.5201 92.929 47.9139C86.6944 45.3077 79.9342 44.202 73.1935 44.6859C66.4528 45.1698 59.9202 47.2298 54.1223 50.6998C48.3244 54.1698 43.4235 58.9528 39.8146 64.663C39.6184 64.9751 39.4223 65.2912 39.2341 65.6072C39.042 65.9273 38.8578 66.2474 38.6736 66.5714C35.0469 73.014 33.1468 80.2835 33.1571 87.6756Z" fill="#F2F2F2"/>
<path d="M74.5739 59.4835C81.6659 61.3021 88.9337 62.3504 96.2508 62.6102C97.3573 62.6704 98.4664 62.6629 99.572 62.5876C102.002 62.3834 104.083 61.6203 106.4 61.2032C107.515 61.0033 108.756 60.8571 109.878 60.6411C109.618 60.3197 109.354 60.0023 109.086 59.6888C106.667 59.893 104.211 60.5615 101.763 60.8722C97.6017 61.401 92.9393 60.8109 89.7848 59.3555C88.2544 58.6494 87.0821 57.768 85.557 57.0586C85.3496 56.9522 85.1249 56.8834 84.8934 56.8555C84.4537 56.8423 84.0194 56.9549 83.6415 57.1801C81.0829 58.4709 77.3681 59.52 73.92 58.9428C73.663 59.1438 74.1512 59.3727 74.5739 59.4835Z" fill="white"/>
<path d="M59.3156 64.0263C59.2842 64.0206 59.2526 64.0161 59.2211 64.0106C59.3535 63.9286 59.4783 63.8347 59.5937 63.7301L59.3156 64.0263Z" fill="white"/>
<path d="M38.6745 66.5731C40.1146 66.6882 41.5622 66.7738 43.0174 66.83C44.1239 66.8897 45.233 66.8822 46.3386 66.8075C48.7682 66.6022 50.8493 65.8401 53.167 65.4231C55.2911 65.0415 57.8724 64.8577 59.2211 64.0107C55.7353 63.4077 52.1238 64.6352 48.5294 65.092C45.622 65.4493 42.6747 65.3039 39.8167 64.6621C39.4187 65.2876 39.038 65.9247 38.6745 66.5731Z" fill="white"/>
<path d="M56.0958 125.767C56.44 125.955 56.7883 126.135 57.1366 126.307C57.2607 126.367 57.3888 126.427 57.5129 126.491C57.617 126.539 57.7211 126.591 57.8252 126.639C57.8572 126.655 57.8852 126.667 57.9132 126.683C58.0013 126.723 58.0854 126.763 58.1735 126.803C58.2695 126.847 58.3656 126.891 58.4577 126.935C58.5658 126.983 58.6699 127.031 58.7779 127.075C59.1783 127.255 59.5826 127.427 59.9869 127.591C61.4359 128.185 62.9167 128.698 64.4225 129.128C64.4906 129.148 64.5627 129.168 64.6347 129.188C65.2793 129.368 65.9278 129.532 66.5803 129.68C67.7212 129.944 68.8728 130.16 70.0351 130.328H70.0431C70.1832 130.348 70.3193 130.368 70.4595 130.388C70.4715 130.388 70.4835 130.392 70.4995 130.392C70.4995 130.396 70.4995 130.396 70.5035 130.392C70.6556 130.412 70.8117 130.432 70.9639 130.452C70.9742 130.455 70.9851 130.456 70.9959 130.456C71.14 130.476 71.2881 130.492 71.4322 130.508C71.5884 130.524 71.7445 130.54 71.9006 130.556C72.0207 130.568 72.1408 130.58 72.2609 130.592C72.2712 130.596 72.2821 130.597 72.2929 130.596C72.401 130.604 72.5091 130.616 72.6172 130.624H72.6332C72.7253 130.632 72.8214 130.64 72.9135 130.648C74.0304 130.736 75.1513 130.776 76.2882 130.776C77.5172 130.776 78.7382 130.728 79.9432 130.624H79.9552C80.2154 130.6 80.4716 130.576 80.7278 130.552C80.7959 130.544 80.8599 130.54 80.928 130.532C80.94 130.532 80.956 130.528 80.968 130.528C80.988 130.524 81.008 130.524 81.0321 130.52C81.0429 130.52 81.0537 130.519 81.0641 130.516C81.1521 130.508 81.2402 130.496 81.3323 130.488L81.6325 130.452C81.7326 130.44 81.8327 130.424 81.9328 130.412C81.9568 130.408 81.9768 130.408 82.0008 130.404C82.0729 130.396 82.145 130.384 82.217 130.372C82.253 130.368 82.2891 130.364 82.3211 130.36C82.3932 130.348 82.4612 130.34 82.5333 130.328H82.5373C84.734 130.012 86.9024 129.524 89.0225 128.868C89.1346 128.832 89.2467 128.8 89.3588 128.764C88.8419 126.355 87.7778 124.096 86.2486 122.164C84.7194 120.231 82.7661 118.676 80.5396 117.618C81.0904 117.093 81.4711 116.416 81.6325 115.673C81.7365 115.194 81.7447 114.7 81.6568 114.218C81.5688 113.736 81.3865 113.276 81.1201 112.865C80.6006 112.067 79.7856 111.509 78.8543 111.312L72.9215 110.072C71.9664 109.886 70.9765 110.084 70.1668 110.624C69.3572 111.163 68.7934 112 68.598 112.953C68.5374 113.245 68.5106 113.543 68.5179 113.841C62.8052 117.641 58.6939 121.582 56.0958 125.767Z" fill="#3C5D9C"/>
<path d="M79.5662 106.07C87.5418 106.07 94.0072 99.6082 94.0072 91.6376C94.0072 83.667 87.5418 77.2055 79.5662 77.2055C71.5907 77.2055 65.1252 83.667 65.1252 91.6376C65.1252 99.6082 71.5907 106.07 79.5662 106.07Z" fill="#9E616A"/>
<path d="M77.5141 105.298C73.8988 106.274 69.9131 104.977 67.0917 102.516C64.2703 100.055 62.5054 96.5679 61.4885 92.966C60.7438 90.328 60.3906 87.3998 61.5659 84.9233C62.7412 82.4467 65.9043 80.7759 68.3446 82.0269C66.8392 80.274 67.5913 77.3749 69.3495 75.8754C71.1077 74.3759 73.522 73.9459 75.8214 73.7109C79.1585 73.3699 82.6055 73.3317 85.781 74.4121C88.9565 75.4926 91.8418 77.8548 92.8356 81.0567C93.8506 81.529 94.9937 81.6515 96.0859 81.4051C97.1781 81.1587 98.1576 80.5572 98.8712 79.6948C99.0551 80.6852 98.9074 81.7086 98.4508 82.6066C97.9941 83.5047 97.2541 84.2273 96.3452 84.6627L101.211 83.0862C102.047 84.8563 100.581 87.047 98.7062 87.6138C96.8313 88.1807 94.8074 87.5611 93.0281 86.7422C91.2489 85.9233 89.5246 84.8879 87.592 84.5686C85.6594 84.2492 83.3892 84.8698 82.4953 86.6117C82.0271 87.524 82.0027 88.5926 81.7308 89.5813C81.459 90.57 80.7704 91.5951 79.7476 91.676C79.1014 91.7271 78.4687 91.3831 77.8243 91.4534C77.4289 91.5313 77.0647 91.7226 76.7764 92.0041C76.4882 92.2856 76.2883 92.645 76.2013 93.0383C76.0408 93.8276 76.0389 94.6408 76.1955 95.4308L77.4314 104.872L77.5141 105.298Z" fill="#2F2E41"/>
</g>
<defs>
<clipPath id="clip0_2_103">
<rect width="324" height="252" fill="white"/>
</clipPath>
</defs>
</svg>
